<svg xmlns="http://www.w3.org/2000/svg" viewBox="0 0 620 128" role="img" aria-labelledby="t d"><title id="t">KQ4DLB Dashboard Matrix</title><desc id="d">Dashboard Matrix logo with modular grid and radio signal.</desc><rect width="620" height="128" rx="18" fill="#071525"/><g transform="translate(8 8) scale(.875)"><rect x="4" y="4" width="120" height="120" rx="22" fill="#071525" stroke="#38bdf8" stroke-width="6"/><g fill="#153044" stroke="#3b647c" stroke-width="2"><rect x="20" y="20" width="25" height="25" rx="5"/><rect x="52" y="20" width="56" height="25" rx="5"/><rect x="20" y="52" width="25" height="56" rx="5"/><rect x="52" y="52" width="25" height="25" rx="5"/><rect x="84" y="52" width="24" height="56" rx="5"/><rect x="52" y="84" width="25" height="24" rx="5"/></g><circle cx="64.5" cy="64.5" r="7" fill="#22d3ee"/><path d="M49 64.5a15.5 15.5 0 0 1 31 0M40 64.5a24.5 24.5 0 0 1 49 0" fill="none" stroke="#e6f7ff" stroke-width="4" stroke-linecap="round"/></g><text x="135" y="46" fill="#8adcf8" font-family="system-ui,sans-serif" font-size="22" font-weight="700" letter-spacing="3">KQ4DLB</text><text x="135" y="85" fill="#fff" font-family="system-ui,sans-serif" font-size="38" font-weight="800">Dashboard <tspan fill="#22d3ee">Matrix</tspan></text><text x="137" y="110" fill="#91a9b8" font-family="system-ui,sans-serif" font-size="14" letter-spacing="1.4">BUILD YOUR VIEW. CONNECT YOUR DATA.</text></svg>