<svg xmlns="http://www.w3.org/2000/svg" viewBox="0 0 128 128" role="img" aria-labelledby="t d"><title id="t">Dashboard Matrix</title><desc id="d">A dashboard grid with a radio signal centered on KQ4DLB.</desc><defs><linearGradient id="g" x1="0" y1="0" x2="1" y2="1"><stop stop-color="#38bdf8"/><stop offset="1" stop-color="#22d3ee"/></linearGradient></defs><rect x="4" y="4" width="120" height="120" rx="22" fill="#071525" stroke="url(#g)" stroke-width="6"/><g fill="#153044" stroke="#3b647c" stroke-width="2"><rect x="20" y="20" width="25" height="25" rx="5"/><rect x="52" y="20" width="56" height="25" rx="5"/><rect x="20" y="52" width="25" height="56" rx="5"/><rect x="52" y="52" width="25" height="25" rx="5"/><rect x="84" y="52" width="24" height="56" rx="5"/><rect x="52" y="84" width="25" height="24" rx="5"/></g><circle cx="64.5" cy="64.5" r="7" fill="url(#g)"/><path d="M49 64.5a15.5 15.5 0 0 1 31 0M40 64.5a24.5 24.5 0 0 1 49 0" fill="none" stroke="#e6f7ff" stroke-width="4" stroke-linecap="round" opacity=".9"/></svg>